<?xml version="1.0" encoding="utf-8"?>
<!-- Generator: Adobe Illustrator 23.0.0, SVG Export Plug-In . SVG Version: 6.00 Build 0)  -->
<svg version="1.1" id="Layer_1" xmlns="http://www.w3.org/2000/svg" xmlns:xlink="http://www.w3.org/1999/xlink" x="0px" y="0px"
	 viewBox="0 0 512 512" style="enable-background:new 0 0 512 512;" xml:space="preserve">
<style type="text/css">
	.st0{fill:none;stroke:#3F3F3F;stroke-width:19.125;stroke-miterlimit:10;}
</style>
<path class="st0" d="M132.6,272.8h53.7v220.9c0,4.4,3.5,7.9,7.9,7.9h91c4.4,0,7.9-3.5,7.9-7.9V273.8h61.7c4,0,7.4-3,7.8-7l9.4-81.3
	c0.3-2.2-0.5-4.5-1.9-6.2c-1.5-1.7-3.6-2.6-5.9-2.6H293v-51c0-15.4,8.3-23.2,24.6-23.2c2.3,0,46.5,0,46.5,0c4.4,0,7.9-3.5,7.9-7.9
	V20c0-4.4-3.5-7.9-7.9-7.9h-64c-0.5,0-1.5-0.1-2.9-0.1c-11.1,0-49.7,2.2-80.2,30.2c-33.8,31.1-29.1,68.3-28,74.8v59.6h-56.3
	c-4.4,0-7.9,3.5-7.9,7.9v80.3C124.7,269.3,128.2,272.8,132.6,272.8z"/>
</svg>
