<?xml version="1.0" encoding="utf-8"?>
<!-- Generator: Adobe Illustrator 23.0.0, SVG Export Plug-In . SVG Version: 6.00 Build 0)  -->
<svg version="1.1" id="Camada_1" xmlns="http://www.w3.org/2000/svg" xmlns:xlink="http://www.w3.org/1999/xlink" x="0px" y="0px"
	 viewBox="0 0 682 682" style="enable-background:new 0 0 682 682;" xml:space="preserve">
<style type="text/css">
	.st0{fill-rule:evenodd;clip-rule:evenodd;fill:#3F3F3F;}
	.st1{fill:#FFFFFF;}
</style>
<g>
	<path class="st0" d="M73.3,495.6l-0.9-1.6c-27.3-47.3-41.7-101.3-41.7-156.1C30.8,165.6,170.9,25.5,343,25.5
		c83.5,0,162,32.6,220.9,91.6c59,59,91.4,137.5,91.4,221c-0.1,172.2-140.2,312.3-312.3,312.3h-0.1c-52.1,0-103.7-13.2-149.2-38
		l-1.6-0.9L30,654L73.3,495.6z M206.6,568.5c41.1,24.4,88.3,37.3,136.3,37.3h0.1c147.6,0,267.8-120.2,267.8-267.8
		c0-71.6-27.8-138.9-78.4-189.5C481.9,97.9,414.7,70,343.2,70C195.5,70,75.3,190.1,75.2,337.8c0,50.6,14.1,99.9,40.9,142.5l5.2,8.3
		L93.2,591.4l105.4-27.6L206.6,568.5z M425.4,485.7c-10.3,0-19.9-1.5-29.3-4.4c-12.7-4-26.9-8.8-44.7-16.5
		c-63.5-27.4-109.9-84.5-131.9-116c-0.7-1-1.2-1.7-1.5-2.1l-0.1-0.1c-9.4-12.6-31.4-45.5-31.4-79.1c0-34.7,16.8-52.7,24.9-61.3
		c0.6-0.6,1.1-1.2,1.6-1.7c7.2-7.8,15.4-8.4,17.8-8.4c4.7,0,10.2,0,14.9,0.3c0.5,0,0.9,0,1.4,0l1.2,0c3.2,0,6.8,0,11.3,10.8
		c2.2,5.2,5.3,12.9,8.7,21.1c8.5,20.6,14.6,35.4,15.9,38c2,4,2.2,6.8,0.7,9.8c-1.4,2.8-5.9,9.7-19.3,26.3c-0.3,0.4-0.7,0.9-1.1,1.3
		c-3.4,4-8.5,10.1-2.8,20c5.8,9.9,21.8,35.3,44.9,55.9c25.8,23.1,48.7,33,59.6,37.7c2.1,0.9,3.8,1.7,5,2.2c4.1,2.1,7.5,3,10.6,3
		c4.5,0,8.3-2,11.9-6.1c3.7-4.2,19.8-23,25.4-31.5c2.7-4,4.6-4,5.6-4c1.9,0,4.5,0.9,7,1.8c6.6,2.4,43.4,20.4,53.6,25.6
		c1.6,0.8,3,1.5,4.4,2.2c4.2,2.1,7.9,3.8,8.9,5.3c1.1,2.6,1.2,16.7-5,33.9c-5.9,16.6-36.3,32.7-49.9,34.7
		C437.3,485.2,431.3,485.7,425.4,485.7C425.4,485.7,425.4,485.7,425.4,485.7z"/>
	<path class="st1" d="M343,30L343,30c82.3,0,159.6,32.1,217.7,90.3c58.1,58.2,90.1,135.5,90.1,217.8
		c-0.1,169.7-138.2,307.8-307.8,307.8h-0.1c-51.3,0-102.2-13-147.1-37.5l-3.1-1.7l-3.5,0.9L36.4,647.7l40.8-149.1l1-3.6l-1.9-3.3
		c-26.9-46.6-41.1-99.8-41.1-153.9C35.3,168.1,173.4,30,343,30 M116.5,489.3l-25.6,93.4l-4.1,15l15.1-4l96-25.2l6.4,3.8
		c41.8,24.8,89.8,37.9,138.6,38h0.1c150.1,0,272.3-122.2,272.3-272.3c0-72.8-28.3-141.2-79.7-192.7
		c-51.4-51.5-119.8-79.8-192.5-79.9C193,65.5,70.8,187.6,70.7,337.8c0,51.5,14.4,101.6,41.6,144.9L116.5,489.3 M230.9,200.5
		c4.6,0,10,0,14.7,0.3c0.5,0,1,0,1.6,0l0.7,0l0.6,0c1.7,0,2,0.1,2.3,0.4c0.5,0.4,2.4,1.9,4.8,7.7c2.2,5.2,5.3,12.9,8.7,21
		c8.8,21.4,14.6,35.6,16,38.3c1.7,3.3,1.3,4.5,0.7,5.8c-1.1,2.1-4.9,8.3-18.7,25.5c-0.3,0.4-0.7,0.8-1,1.2
		c-3.4,4.1-10.6,12.5-3.2,25.1c5.9,10.1,22.2,35.9,45.8,57c26.4,23.5,49.7,33.6,60.8,38.5c2,0.9,3.7,1.6,4.8,2.1
		c4.8,2.4,8.8,3.5,12.6,3.5c5.8,0,10.8-2.5,15.3-7.6c4-4.5,20-23.2,25.8-32c1-1.4,1.6-1.9,1.7-2c0,0,0.1,0,0.1,0
		c1.3,0,4.1,1,5.4,1.5c6.1,2.2,41.9,19.7,53.1,25.3c1.6,0.8,3.1,1.5,4.5,2.2c2.5,1.2,5.4,2.6,6.7,3.5c0.6,4-0.1,16-5.1,30.1
		c-2.2,6.3-9.5,13.7-19.9,20.4c-10.5,6.7-20.8,10.6-26.4,11.4c-6.4,1-12.2,1.4-17.9,1.4c-9.8,0-19-1.4-27.9-4.2
		c-12.6-4-26.6-8.7-44.3-16.4c-30.2-13-59.9-34.5-88.3-63.7c-22.5-23.2-37-43.9-41.7-50.7c-0.8-1.1-1.2-1.7-1.6-2.2l-0.1-0.1
		c-8-10.7-13.6-20.7-16.9-27.1c-9-17.8-13.6-34.4-13.6-49.3c0-32.9,16-50,23.7-58.2c0.6-0.6,1.1-1.2,1.6-1.7
		C222.3,201,229,200.5,230.9,200.5 M343,21C168.4,21,26.3,163.1,26.2,337.8c0,55.8,14.6,110.3,42.3,158.4L23.6,660.4l168-44.1
		c46.3,25.2,98.4,38.5,151.4,38.6h0.1c174.6,0,316.8-142.1,316.8-316.8c0-84.7-32.9-164.3-92.7-224.1C507.3,54,427.8,21,343,21
		L343,21z M99.6,585.1l26.6-97.2l-6.3-10C93.6,436,79.7,387.6,79.7,337.8C79.8,192.6,197.9,74.5,343.2,74.5
		c70.3,0,136.5,27.4,186.2,77.2c49.7,49.8,77.1,115.9,77.1,186.3C606.3,483.2,488.2,601.4,343,601.4h-0.1
		c-47.3,0-93.6-12.7-134-36.7l-9.6-5.7L99.6,585.1L99.6,585.1z M230.9,191.5c-5.3,0-13.9,2-21.1,9.9c-7.3,7.9-27.7,27.1-27.7,66
		s28.4,76.6,32.3,81.9c4,5.3,55.8,85.2,135.2,119.5c18.9,8.2,33.6,13,45.1,16.7c10.9,3.5,21.2,4.7,30.6,4.7c7,0,13.4-0.7,19.2-1.5
		c15.2-2.3,46.8-19.2,53.4-37.6c6.6-18.5,6.6-34.3,4.6-37.6c-2-3.3-7.3-5.3-15.2-9.2c-7.9-4-46.8-23.1-54.1-25.8
		c-3.1-1.1-5.9-2-8.5-2c-3.3,0-6.3,1.5-9.3,6c-5.3,7.9-20.4,25.8-25.1,31c-2.6,3-5.3,4.5-8.5,4.5c-2.4,0-5.2-0.8-8.6-2.5
		c-7.9-4-33.4-12.3-63.7-39.3c-23.5-21-39.4-46.9-44-54.8c-4.6-7.9,0-11.8,3.5-16.2c8.6-10.6,17.2-21.8,19.8-27.1
		c2.6-5.3,1.3-9.9-0.7-13.9c-2-4-17.8-42.9-24.4-58.8c-5.4-13-10.9-13.6-15.4-13.6c-0.4,0-0.8,0-1.2,0c-0.4,0-0.8,0-1.2,0
		C241.4,191.5,236.2,191.5,230.9,191.5L230.9,191.5z"/>
</g>
</svg>
